<svg width="20" height="20" viewBox="0 0 20 20" fill="none" xmlns="http://www.w3.org/2000/svg">
<path d="M19.1667 0H5.83333C5.61232 0 5.40036 0.0877975 5.24408 0.244078C5.0878 0.400358 5 0.61232 5 0.833333V5H0.833333C0.61232 5 0.400358 5.0878 0.244078 5.24408C0.0877975 5.40036 0 5.61232 0 5.83333V19.1667C0 19.3877 0.0877975 19.5996 0.244078 19.7559C0.400358 19.9122 0.61232 20 0.833333 20H14.1667C14.3877 20 14.5996 19.9122 14.7559 19.7559C14.9122 19.5996 15 19.3877 15 19.1667V15H19.1667C19.3877 15 19.5996 14.9122 19.7559 14.7559C19.9122 14.5996 20 14.3877 20 14.1667V0.833333C20 0.61232 19.9122 0.400358 19.7559 0.244078C19.5996 0.0877975 19.3877 0 19.1667 0ZM18.3333 13.3333H15V5.83333C15 5.61232 14.9122 5.40036 14.7559 5.24408C14.5996 5.0878 14.3877 5 14.1667 5H6.66667V1.66667H18.3333V13.3333Z" fill="white"/>
</svg>
