<svg width="108" height="108" viewBox="0 0 108 108" fill="none" xmlns="http://www.w3.org/2000/svg">
<path d="M78.9231 0H29.0769C21.3678 0.00824656 13.9767 3.07435 8.52554 8.52554C3.07435 13.9767 0.00824656 21.3678 0 29.0769V78.9231C0.00824656 86.6322 3.07435 94.0233 8.52554 99.4745C13.9767 104.926 21.3678 107.992 29.0769 108H78.9231C86.6322 107.992 94.0233 104.926 99.4745 99.4745C104.926 94.0233 107.992 86.6322 108 78.9231V29.0769C107.992 21.3678 104.926 13.9767 99.4745 8.52554C94.0233 3.07435 86.6322 0.00824656 78.9231 0ZM54 78.9231C49.0707 78.9231 44.2521 77.4614 40.1535 74.7228C36.0549 71.9842 32.8605 68.0917 30.9741 63.5377C29.0877 58.9836 28.5942 53.9724 29.5558 49.1378C30.5175 44.3031 32.8912 39.8623 36.3767 36.3767C39.8623 32.8912 44.3031 30.5175 49.1378 29.5558C53.9724 28.5942 58.9836 29.0877 63.5377 30.9741C68.0917 32.8605 71.9842 36.0549 74.7228 40.1535C77.4614 44.2521 78.9231 49.0707 78.9231 54C78.9162 60.6079 76.2882 66.9432 71.6157 71.6157C66.9432 76.2882 60.6079 78.9162 54 78.9231ZM85.1538 29.0769C83.9215 29.0769 82.7169 28.7115 81.6922 28.0269C80.6676 27.3422 79.869 26.3691 79.3974 25.2306C78.9258 24.092 78.8024 22.8392 79.0428 21.6306C79.2832 20.4219 79.8766 19.3117 80.748 18.4403C81.6194 17.5689 82.7296 16.9755 83.9383 16.7351C85.1469 16.4947 86.3997 16.6181 87.5383 17.0897C88.6768 17.5613 89.6499 18.3599 90.3345 19.3845C91.0192 20.4092 91.3846 21.6138 91.3846 22.8462C91.3846 24.4987 90.7282 26.0835 89.5597 27.252C88.3912 28.4205 86.8064 29.0769 85.1538 29.0769ZM70.6154 54C70.6154 57.2862 69.6409 60.4986 67.8152 63.231C65.9895 65.9634 63.3945 68.093 60.3584 69.3506C57.3224 70.6082 53.9816 70.9372 50.7585 70.2961C47.5354 69.655 44.5749 68.0726 42.2511 65.7488C39.9274 63.4251 38.345 60.4646 37.7039 57.2415C37.0628 54.0184 37.3918 50.6776 38.6494 47.6416C39.907 44.6055 42.0366 42.0105 44.769 40.1848C47.5014 38.3591 50.7138 37.3846 54 37.3846C58.4067 37.3846 62.6329 39.1352 65.7488 42.2511C68.8648 45.3671 70.6154 49.5933 70.6154 54Z" fill="url(#paint0_linear_365_4)"/>
<defs>
<linearGradient id="paint0_linear_365_4" x1="54" y1="0" x2="149.727" y2="162" gradientUnits="userSpaceOnUse">
<stop stop-color="#844AFF"/>
<stop offset="0.260417" stop-color="#FF6DCE"/>
<stop offset="0.505208" stop-color="#FFBABA"/>
</linearGradient>
</defs>
</svg>
