<svg width="22" height="22" viewBox="0 0 22 22" fill="none" xmlns="http://www.w3.org/2000/svg">
<path d="M16.0769 0H5.92308C4.35269 0.00167985 2.84711 0.626256 1.73668 1.73668C0.626256 2.84711 0.00167985 4.35269 0 5.92308V16.0769C0.00167985 17.6473 0.626256 19.1529 1.73668 20.2633C2.84711 21.3737 4.35269 21.9983 5.92308 22H16.0769C17.6473 21.9983 19.1529 21.3737 20.2633 20.2633C21.3737 19.1529 21.9983 17.6473 22 16.0769V5.92308C21.9983 4.35269 21.3737 2.84711 20.2633 1.73668C19.1529 0.626256 17.6473 0.00167985 16.0769 0ZM11 16.0769C9.99588 16.0769 9.01431 15.7792 8.17941 15.2213C7.34452 14.6634 6.6938 13.8705 6.30954 12.9429C5.92527 12.0152 5.82473 10.9944 6.02063 10.0095C6.21652 9.02472 6.70005 8.12009 7.41007 7.41007C8.12009 6.70005 9.02472 6.21652 10.0095 6.02063C10.9944 5.82473 12.0152 5.92527 12.9429 6.30954C13.8705 6.6938 14.6634 7.34452 15.2213 8.17941C15.7792 9.01431 16.0769 9.99588 16.0769 11C16.0755 12.3461 15.5402 13.6366 14.5884 14.5884C13.6366 15.5402 12.3461 16.0755 11 16.0769ZM17.3462 5.92308C17.0951 5.92308 16.8497 5.84864 16.641 5.70917C16.4323 5.56971 16.2696 5.37148 16.1735 5.13956C16.0775 4.90764 16.0523 4.65244 16.1013 4.40623C16.1503 4.16002 16.2712 3.93387 16.4487 3.75636C16.6262 3.57886 16.8523 3.45798 17.0985 3.409C17.3447 3.36003 17.5999 3.38516 17.8319 3.48123C18.0638 3.57729 18.262 3.73998 18.4015 3.9487C18.5409 4.15742 18.6154 4.40282 18.6154 4.65385C18.6154 4.99047 18.4817 5.3133 18.2436 5.55133C18.0056 5.78936 17.6828 5.92308 17.3462 5.92308ZM14.3846 11C14.3846 11.6694 14.1861 12.3238 13.8142 12.8804C13.4423 13.437 12.9137 13.8708 12.2952 14.127C11.6768 14.3832 10.9962 14.4502 10.3397 14.3196C9.68314 14.189 9.08006 13.8666 8.60672 13.3933C8.13337 12.9199 7.81101 12.3169 7.68042 11.6603C7.54982 11.0038 7.61685 10.3232 7.87302 9.70476C8.1292 9.08631 8.56301 8.5577 9.11961 8.1858C9.67621 7.81389 10.3306 7.61538 11 7.61538C11.8977 7.61538 12.7585 7.97198 13.3933 8.60672C14.028 9.24145 14.3846 10.1023 14.3846 11Z" fill="white"/>
</svg>
