<svg width="113" height="98" viewBox="0 0 113 98" fill="none" xmlns="http://www.w3.org/2000/svg">
<path d="M111.429 1.07221C110.803 0.547749 110.042 0.198948 109.228 0.0633852C108.414 -0.0721779 107.577 0.0106355 106.808 0.302903L4.57366 39.1652C3.12477 39.7124 1.89812 40.7021 1.07837 41.9851C0.258629 43.2681 -0.109838 44.7751 0.0284432 46.2791C0.166725 47.7832 0.804271 49.2029 1.8451 50.3245C2.88593 51.4461 4.2737 52.209 5.7995 52.4982L32.2887 57.5501V86.2399C32.2835 87.8026 32.7616 89.3308 33.6611 90.6265C34.5605 91.9222 35.8399 92.9256 37.3333 93.5067C38.8245 94.0981 40.4643 94.2401 42.0397 93.9141C43.615 93.5882 45.0529 92.8093 46.1664 91.6789L58.9394 78.8114L79.2036 96.04C80.6656 97.2996 82.5512 97.9967 84.5055 98C85.3618 97.9993 86.2129 97.8687 87.0278 97.6129C88.3593 97.2025 89.5569 96.4604 90.5012 95.4606C91.4456 94.4607 92.1038 93.238 92.4104 91.9141L112.886 5.38915C113.07 4.60881 113.031 3.79477 112.774 3.03429C112.517 2.2738 112.052 1.59554 111.429 1.07221ZM84.5155 90.1599L42.8067 54.6346L102.838 12.8421L84.5155 90.1599Z" fill="url(#paint0_linear_365_3)"/>
<defs>
<linearGradient id="paint0_linear_365_3" x1="54.0435" y1="-14.7" x2="112.725" y2="144.651" gradientUnits="userSpaceOnUse">
<stop stop-color="#84FFF8"/>
<stop offset="0.453125" stop-color="#339DFF"/>
<stop offset="1" stop-color="#6147FF"/>
</linearGradient>
</defs>
</svg>
