<svg width="23" height="20" viewBox="0 0 23 20" fill="none" xmlns="http://www.w3.org/2000/svg">
<path d="M22.6801 0.218818C22.5529 0.111786 22.398 0.0406017 22.2323 0.0129358C22.0666 -0.0147302 21.8962 0.00217052 21.7396 0.061817L0.930922 7.99289C0.636015 8.10458 0.386343 8.30654 0.219492 8.56838C0.0526413 8.83023 -0.0223565 9.13777 0.00578932 9.44472C0.0339351 9.75166 0.163701 10.0414 0.375551 10.2703C0.587401 10.4992 0.869869 10.6549 1.18043 10.7139L6.57204 11.7449V17.6C6.57098 17.9189 6.66829 18.2308 6.85137 18.4952C7.03444 18.7596 7.29484 18.9644 7.59882 19.083C7.90233 19.2037 8.2361 19.2327 8.55675 19.1661C8.87739 19.0996 9.17006 18.9407 9.39671 18.71L11.9965 16.084L16.1211 19.6C16.4187 19.8571 16.8025 19.9993 17.2002 20C17.3745 19.9999 17.5478 19.9732 17.7136 19.921C17.9846 19.8372 18.2284 19.6858 18.4206 19.4818C18.6128 19.2777 18.7468 19.0282 18.8092 18.758L22.9769 1.09983C23.0142 0.940574 23.0062 0.774444 22.954 0.619242C22.9017 0.464041 22.807 0.325621 22.6801 0.218818ZM17.2023 18.4L8.71288 11.1499L20.9315 2.62084L17.2023 18.4Z" fill="#18191F"/>
</svg>
