<svg width="16" height="21" viewBox="0 0 16 21" fill="none" xmlns="http://www.w3.org/2000/svg">
<path d="M15.8577 10.0677L8.52418 0.267471C8.4618 0.184125 8.3822 0.116742 8.2914 0.0704087C8.2006 0.0240751 8.10096 0 8 0C7.89904 0 7.7994 0.0240751 7.7086 0.0704087C7.6178 0.116742 7.5382 0.184125 7.47582 0.267471L0.14229 10.0677C0.0501054 10.191 0 10.3432 0 10.5C0 10.6568 0.0501054 10.809 0.14229 10.9323L7.47582 20.7325C7.5382 20.8159 7.6178 20.8833 7.7086 20.9296C7.7994 20.9759 7.89904 21 8 21C8.10096 21 8.2006 20.9759 8.2914 20.9296C8.3822 20.8833 8.4618 20.8159 8.52418 20.7325L15.8577 10.9323C15.9499 10.809 16 10.6568 16 10.5C16 10.3432 15.9499 10.191 15.8577 10.0677ZM8.66668 12.9133V2.72366L14.2852 10.2314L8.66668 12.9133ZM7.33332 12.9133L1.71483 10.2314L7.33332 2.72366V12.9133ZM7.33332 14.4507V18.2763L2.8807 12.3262L7.33332 14.4507Z" fill="white"/>
</svg>
