<svg width="25" height="30" viewBox="0 0 25 30" fill="none" xmlns="http://www.w3.org/2000/svg">
<rect width="25" height="30" fill="#F5F5F5"/>
<g id="Frame 10917">
<g clip-path="url(#clip0_0_1)">
<path d="M-1473 -49H447V9212C447 9228.57 433.569 9242 417 9242H-1443C-1459.57 9242 -1473 9228.57 -1473 9212V-49Z" fill="#151719"/>
<g id="Ellipse 6" filter="url(#filter0_f_0_1)">
<ellipse cx="-185.5" cy="-5.5" rx="451.5" ry="396.5" fill="#6C65FF" fill-opacity="0.86"/>
</g>
<rect id="Rectangle 7" x="-141.5" y="-9.5" width="371" height="50" rx="19.5" fill="url(#paint0_linear_0_1)" stroke="white"/>
<path id="Vector" d="M24.7777 14.3825L13.319 0.382102C13.2216 0.263035 13.0972 0.166775 12.9553 0.100584C12.8134 0.0343929 12.6577 0 12.5 0C12.3423 0 12.1866 0.0343929 12.0447 0.100584C11.9028 0.166775 11.7784 0.263035 11.681 0.382102L0.222328 14.3825C0.0782896 14.5586 0 14.7761 0 15C0 15.2239 0.0782896 15.4414 0.222328 15.6175L11.681 29.6179C11.7784 29.737 11.9028 29.8332 12.0447 29.8994C12.1866 29.9656 12.3423 30 12.5 30C12.6577 30 12.8134 29.9656 12.9553 29.8994C13.0972 29.8332 13.2216 29.737 13.319 29.6179L24.7777 15.6175C24.9217 15.4414 25 15.2239 25 15C25 14.7761 24.9217 14.5586 24.7777 14.3825ZM13.5417 18.4476V3.89095L22.3206 14.6162L13.5417 18.4476ZM11.4583 18.4476L2.67943 14.6162L11.4583 3.89095V18.4476ZM11.4583 20.6439V26.1091L4.50109 17.6088L11.4583 20.6439Z" fill="white"/>
</g>
</g>
<defs>
<filter id="filter0_f_0_1" x="-987" y="-752" width="1603" height="1493" filterUnits="userSpaceOnUse" color-interpolation-filters="sRGB">
<feFlood flood-opacity="0" result="BackgroundImageFix"/>
<feBlend mode="normal" in="SourceGraphic" in2="BackgroundImageFix" result="shape"/>
<feGaussianBlur stdDeviation="175" result="effect1_foregroundBlur_0_1"/>
</filter>
<linearGradient id="paint0_linear_0_1" x1="-104.8" y1="-10" x2="-55.0373" y2="142.748" gradientUnits="userSpaceOnUse">
<stop offset="0.0728206" stop-color="#675EFF"/>
<stop offset="0.404579" stop-color="#6DAEFF"/>
<stop offset="1" stop-color="#FFBB54"/>
<stop offset="1" stop-color="#FFC46B"/>
</linearGradient>
<clipPath id="clip0_0_1">
<path d="M-1473 -49H447V9212C447 9228.57 433.569 9242 417 9242H-1443C-1459.57 9242 -1473 9228.57 -1473 9212V-49Z" fill="white"/>
</clipPath>
</defs>
</svg>
