<svg width="290" height="44" viewBox="0 0 290 44" fill="none" xmlns="http://www.w3.org/2000/svg">
<path d="M68.4841 13.2238V33.4592L65.6805 30.6299H82.5924V36.2885H62.2439V13.2238H68.4841Z" fill="white"/>
<path d="M90.2916 25.9862C90.2916 27.0318 90.4826 27.9442 90.8644 28.7232C91.2663 29.4818 91.8492 30.0661 92.6129 30.4762C93.3967 30.8862 94.3513 31.0912 95.4767 31.0912C96.6223 31.0912 97.5769 30.8862 98.3406 30.4762C99.1043 30.0661 99.6771 29.4818 100.059 28.7232C100.441 27.9442 100.632 27.0318 100.632 25.9862V13.2238H106.902V26.2938C106.902 28.4055 106.42 30.2506 105.455 31.8293C104.51 33.3874 103.184 34.6073 101.476 35.4889C99.7675 36.35 97.7678 36.7805 95.4767 36.7805C93.2057 36.7805 91.2061 36.35 89.4777 35.4889C87.7694 34.6073 86.433 33.3874 85.4683 31.8293C84.5237 30.2506 84.0514 28.4055 84.0514 26.2938V13.2238H90.2916V25.9862Z" fill="white"/>
<path d="M135.93 26.632C135.709 28.6617 135.026 30.4454 133.881 31.983C132.735 33.5002 131.228 34.679 129.359 35.5196C127.51 36.3602 125.379 36.7805 122.968 36.7805C120.335 36.7805 118.034 36.2782 116.064 35.2736C114.095 34.269 112.557 32.8646 111.452 31.0605C110.367 29.2563 109.824 27.1548 109.824 24.7561C109.824 22.3574 110.367 20.2559 111.452 18.4518C112.557 16.6476 114.095 15.2432 116.064 14.2386C118.034 13.234 120.335 12.7317 122.968 12.7317C125.379 12.7317 127.51 13.152 129.359 13.9926C131.228 14.8332 132.735 16.0223 133.881 17.5599C135.026 19.0771 135.709 20.8505 135.93 22.8802H129.66C129.459 21.8961 129.067 21.0658 128.484 20.3892C127.902 19.6921 127.138 19.1591 126.193 18.79C125.269 18.421 124.194 18.2365 122.968 18.2365C121.561 18.2365 120.345 18.503 119.32 19.0361C118.295 19.5486 117.511 20.2969 116.969 21.281C116.426 22.2446 116.155 23.403 116.155 24.7561C116.155 26.1092 116.426 27.2778 116.969 28.2619C117.511 29.2255 118.295 29.9739 119.32 30.5069C120.345 31.0195 121.561 31.2757 122.968 31.2757C124.194 31.2757 125.269 31.1015 126.193 30.7529C127.138 30.4044 127.902 29.8816 128.484 29.1845C129.067 28.4875 129.459 27.6366 129.66 26.632H135.93Z" fill="white"/>
<path d="M138.963 36.2885V13.2238H145.173V31.2142L143.515 29.8918L156.327 13.2238H162.929L144.6 36.2885H138.963ZM149.755 25.2789L154.337 21.404L163.23 36.2885H156.146L149.755 25.2789Z" fill="white"/>
<path d="M173.875 36.2885V25.0636H180.146V36.2885H173.875ZM163.264 13.2238H170.198L178.397 23.8643H175.594L183.763 13.2238H190.697L179 28.385L174.991 28.4465L163.264 13.2238Z" fill="white"/>
<path d="M203.655 13.2238C206.228 13.2238 208.479 13.7056 210.408 14.6692C212.357 15.6327 213.875 16.9859 214.96 18.7285C216.045 20.4507 216.588 22.4599 216.588 24.7561C216.588 27.0523 216.045 29.0718 214.96 30.8144C213.875 32.5366 212.357 33.8795 210.408 34.8431C208.479 35.8067 206.228 36.2885 203.655 36.2885H193.436V13.2238H203.655ZM197.415 34.8738L195.214 32.7211H203.927C205.655 32.7211 207.162 32.3931 208.448 31.737C209.755 31.0605 210.76 30.1276 211.463 28.9385C212.186 27.7289 212.548 26.3348 212.548 24.7561C212.548 23.157 212.186 21.7628 211.463 20.5737C210.76 19.3846 209.755 18.462 208.448 17.806C207.162 17.1294 205.655 16.7911 203.927 16.7911H195.214L197.415 14.6384V34.8738Z" fill="white"/>
<path d="M222.18 30.999V27.6469H237.977V30.999H222.18ZM232.671 13.2238L243.524 36.2885H239.273L229.415 14.7614H230.953L221.095 36.2885H216.845L227.697 13.2238H232.671Z" fill="white"/>
<path d="M258.247 13.2238C259.936 13.2238 261.393 13.5313 262.619 14.1464C263.865 14.7614 264.819 15.6225 265.482 16.7296C266.166 17.8162 266.507 19.0771 266.507 20.5122C266.507 21.9473 266.166 23.2185 265.482 24.3256C264.819 25.4122 263.865 26.263 262.619 26.8781C261.393 27.4931 259.936 27.8006 258.247 27.8006H248.088V24.2948H258.097C259.463 24.2948 260.528 23.9565 261.292 23.28C262.076 22.6034 262.468 21.6808 262.468 20.5122C262.468 19.3436 262.076 18.421 261.292 17.7444C260.528 17.0679 259.463 16.7296 258.097 16.7296H248.48L250.259 14.6999V36.2885H246.279V13.2238H258.247Z" fill="white"/>
<path d="M281.74 13.2238C283.428 13.2238 284.885 13.5313 286.111 14.1464C287.357 14.7614 288.312 15.6225 288.975 16.7296C289.658 17.8162 290 19.0771 290 20.5122C290 21.9473 289.658 23.2185 288.975 24.3256C288.312 25.4122 287.357 26.263 286.111 26.8781C284.885 27.4931 283.428 27.8006 281.74 27.8006H271.581V24.2948H281.589C282.956 24.2948 284.021 23.9565 284.785 23.28C285.569 22.6034 285.96 21.6808 285.96 20.5122C285.96 19.3436 285.569 18.421 284.785 17.7444C284.021 17.0679 282.956 16.7296 281.589 16.7296H271.973L273.751 14.6999V36.2885H269.772V13.2238H281.74Z" fill="white"/>
<path d="M36.1719 7.68086C36.692 -2.20335 16.9578 -7.04871 22.0643 21.7893C50.8974 26.8959 46.061 7.16042 36.1719 7.68086Z" fill="url(#paint0_linear_35_37)"/>
<path d="M7.68093 7.68165C-2.20329 7.16152 -7.04865 26.8958 21.7894 21.7894C26.896 -7.04368 7.16034 -2.20746 7.68093 7.68165Z" fill="url(#paint1_linear_35_37)"/>
<path d="M7.68172 36.1725C7.16159 46.057 26.8959 50.9021 21.7894 22.0642C-7.04378 16.9576 -2.2074 36.6931 7.68172 36.1727V36.1725Z" fill="url(#paint2_linear_35_37)"/>
<path d="M36.1727 36.1717C46.057 36.6921 50.9022 16.9577 22.0642 22.0642C16.9577 50.8974 36.6932 46.0611 36.1727 36.1717Z" fill="url(#paint3_linear_35_37)"/>
<defs>
<linearGradient id="paint0_linear_35_37" x1="17.986" y1="-2.91017" x2="45.7937" y2="21.9874" gradientUnits="userSpaceOnUse">
<stop stop-color="#93FF61"/>
<stop offset="0.546875" stop-color="#92FF80"/>
<stop offset="1" stop-color="#641BFF"/>
</linearGradient>
<linearGradient id="paint1_linear_35_37" x1="-3.23345" y1="-2.9101" x2="24.5742" y2="21.9875" gradientUnits="userSpaceOnUse">
<stop stop-color="#93FF61"/>
<stop offset="0.546875" stop-color="#92FF80"/>
<stop offset="1" stop-color="#641BFF"/>
</linearGradient>
<linearGradient id="paint2_linear_35_37" x1="-3.23345" y1="18.3093" x2="24.5742" y2="43.2069" gradientUnits="userSpaceOnUse">
<stop stop-color="#93FF61"/>
<stop offset="0.546875" stop-color="#92FF80"/>
<stop offset="1" stop-color="#641BFF"/>
</linearGradient>
<linearGradient id="paint3_linear_35_37" x1="17.986" y1="18.3093" x2="45.7937" y2="43.2069" gradientUnits="userSpaceOnUse">
<stop stop-color="#93FF61"/>
<stop offset="0.546875" stop-color="#92FF80"/>
<stop offset="1" stop-color="#641BFF"/>
</linearGradient>
</defs>
</svg>
