<svg width="15" height="18" viewBox="0 0 15 18" fill="none" xmlns="http://www.w3.org/2000/svg">
<path d="M15 9C15.0006 9.23505 14.9412 9.46625 14.8277 9.67111C14.7142 9.87597 14.5504 10.0475 14.3523 10.1691L2.07273 17.7962C1.8657 17.9249 1.62858 17.9952 1.38586 17.9998C1.14314 18.0043 0.903626 17.943 0.692046 17.8222C0.48248 17.7032 0.307906 17.5297 0.186276 17.3195C0.0646461 17.1093 0.000350163 16.87 0 16.6263V1.37373C0.000350163 1.12995 0.0646461 0.890665 0.186276 0.68048C0.307906 0.470295 0.48248 0.296797 0.692046 0.177827C0.903626 0.0569808 1.14314 -0.00432631 1.38586 0.000237404C1.62858 0.00480112 1.8657 0.0750703 2.07273 0.203788L14.3523 7.83092C14.5504 7.95248 14.7142 8.12403 14.8277 8.32889C14.9412 8.53375 15.0006 8.76495 15 9Z" fill="#16181C"/>
</svg>
